<svg width="20" height="24" viewBox="0 0 20 24" fill="none" xmlns="http://www.w3.org/2000/svg">
<path fill-rule="evenodd" clip-rule="evenodd" d="M19.438 8.18206C17.881 9.15122 16.9387 10.4726 16.8749 12.3151C16.7993 14.5048 17.8076 16.0871 19.6838 17.1413C19.9705 17.302 20.0539 17.4062 19.9307 17.7382C19.3149 19.4066 18.3692 20.8679 17.1974 22.1926C16.0938 23.4395 14.7747 23.7715 13.2233 23.14C12.9434 23.0263 12.6567 22.9244 12.37 22.8253C11.3331 22.4692 10.2951 22.4782 9.25652 22.8175C9.08688 22.8723 8.91947 22.9356 8.75262 22.9994C6.51644 23.8381 5.59039 23.6047 4.05127 21.7666C2.02784 19.349 0.830809 16.5809 0.645487 13.4209C0.505516 11.0229 1.06764 8.84665 3.00708 7.24985C4.53221 5.99515 6.26337 5.60435 8.18658 6.23758C11.0207 7.17483 9.92614 7.17987 12.8359 6.21799C15.3643 5.38208 17.9862 6.162 19.438 8.18206Z" fill="#050606"/>
<path fill-rule="evenodd" clip-rule="evenodd" d="M10.3701 5.21187C10.4776 2.92866 12.4994 0.73727 14.7473 0.449489C15.0407 0.410857 15.1969 0.401338 15.2087 0.789899C15.2742 3.03224 13.2871 5.47782 11.0846 5.82719C10.3914 5.93804 10.3377 5.89213 10.3701 5.21187Z" fill="#050606"/>
</svg>
