<svg width="46" height="29" viewBox="0 0 46 29" fill="none" xmlns="http://www.w3.org/2000/svg">
<path d="M31.1878 26.4354C30.0326 24.7227 28.9103 22.9882 27.7725 21.2639C27.114 20.2659 27.1125 20.2663 28.1637 19.7968C30.2807 18.8505 31.2836 17.0609 31.0476 14.6485C30.8585 12.7177 29.7251 11.476 27.6623 10.9658C27.2721 10.8696 26.8717 10.7893 26.4723 10.7666C26.172 10.7497 25.9825 10.6559 25.8185 10.403C25.1068 9.30293 24.0004 8.8721 22.777 8.65208C22.543 8.61001 22.2722 8.65789 22.0827 8.40548C23.6484 8.05104 25.1092 7.53461 25.5536 5.85865C26.335 2.91096 25.2431 0.821082 22.2901 0.25872C20 -0.177437 17.6752 0.0802921 15.3662 0.034839C14.7028 0.0212997 14.0307 -0.0502649 13.374 0.0928643C13.4185 0.252434 13.5283 0.2505 13.6332 0.25872C15.5626 0.41152 15.74 0.60252 15.741 2.56716C15.7434 5.87702 15.7424 9.1864 15.7405 12.4967C15.7395 13.7346 15.7526 14.9725 15.7187 16.2099C15.6892 17.2814 15.2995 17.6479 14.2633 17.7359C13.9678 17.7616 13.6332 17.6479 13.3305 17.8902C13.551 18.0947 13.7681 18.0145 13.9596 18.0154C16.1931 18.0217 18.4266 18.0183 20.6606 18.0203C20.9401 18.0203 21.2466 17.9226 21.2413 18.4211C21.2152 21.3002 21.2345 24.1797 21.1954 27.0582C21.1833 27.9339 20.7573 28.2729 19.8917 28.3952C19.5431 28.4445 19.1185 28.24 18.7462 28.6834C19.9502 28.6834 21.0522 28.6834 22.1538 28.6834C23.2224 28.6834 24.291 28.6834 25.3597 28.6834C25.3611 28.6113 25.3626 28.5388 25.3645 28.4668C25.0855 28.4426 24.807 28.4131 24.528 28.3947C23.4376 28.3236 23.0096 27.9416 22.9913 26.8532C22.9579 24.8353 22.9792 22.817 22.9806 20.7987C22.9806 20.6445 22.9376 20.4718 23.0986 20.3582C23.5144 20.0657 25.2789 20.4356 25.5647 20.878C26.8746 22.9055 28.1584 24.9514 29.5022 26.9567C30.521 28.4789 31.9837 29.0064 33.8304 28.4987C32.3831 28.3473 31.8068 27.3532 31.1878 26.4354ZM24.5546 11.2734C24.91 12.9232 24.9269 14.576 24.1237 16.1349C23.8902 16.589 23.5584 16.9642 22.9777 17.2113C22.9777 15.2433 22.9738 13.3633 22.983 11.4837C22.984 11.2521 22.8554 10.8527 23.3118 10.9368C23.7364 11.0152 24.4047 10.5766 24.5546 11.2734ZM17.8226 0.257269C19.0562 0.27516 20.2945 0.186672 21.5126 0.468095C22.9453 0.799806 23.7117 1.75626 23.9032 3.1566C24.0338 4.11015 24.0473 5.07531 23.8176 6.03708C23.4961 7.38471 22.6126 8.08053 21.3119 8.30587C20.1949 8.49928 19.0625 8.44609 17.9348 8.46543C17.4866 8.47317 17.4788 8.24397 17.4813 7.91661C17.4909 6.73435 17.4851 5.55111 17.4851 4.36933C17.4851 3.18658 17.4793 2.00383 17.49 0.821082C17.4919 0.587047 17.3589 0.251467 17.8226 0.257269ZM19.1635 10.6922C19.061 10.6922 18.959 10.7275 18.856 10.7468C18.8574 10.7903 18.8574 10.8343 18.8584 10.8778C19.2515 10.9107 19.6471 10.9233 20.0353 10.9828C20.7723 11.0969 21.191 11.5384 21.2021 12.2903C21.2258 13.959 21.2137 15.6287 21.2418 17.2974C21.2481 17.6852 21.0619 17.7384 20.7544 17.7374C19.8119 17.735 18.869 17.7292 17.9271 17.7558C17.5649 17.7659 17.4779 17.633 17.4788 17.2921C17.49 14.5726 17.49 11.8531 17.4793 9.13369C17.4784 8.79618 17.561 8.65789 17.9276 8.66901C19.2443 8.71204 20.5668 8.5868 21.8767 8.81069C22.777 8.96445 23.573 9.30293 24.0981 10.1114C24.3771 10.5418 24.3176 10.7057 23.7678 10.6975C22.2335 10.6752 20.6983 10.6883 19.1635 10.6922ZM25.3727 20.0932C25.158 20.1043 24.9419 20.099 24.7272 20.0995C22.7795 20.1039 22.7833 20.1039 22.9738 18.1213C22.9961 17.8878 23.0188 17.7495 23.3017 17.6789C26.3374 16.9192 27.0047 13.9401 26.3006 11.3638C26.2808 11.2922 26.2542 11.2216 26.2078 11.078C27.848 11.3048 28.7338 12.0746 29.0738 13.5755C29.3126 14.6297 29.3619 15.6949 29.1593 16.7737C28.7551 18.9269 27.5811 19.9752 25.3727 20.0932Z" fill="#9B9B9B"/>
<path d="M1.63406 14.6263C1.15245 14.6413 0.98901 14.9324 0.988526 15.3651C0.988042 15.8366 1.26995 16.0687 1.69498 16.0542C2.13453 16.0392 2.35696 15.7486 2.3439 15.2984C2.32794 14.8414 2.09874 14.6113 1.63406 14.6263Z" fill="#9B9B9B"/>
<path d="M45.2735 14.6263C44.8049 14.6171 44.5912 14.8637 44.5863 15.1374C44.581 15.7674 44.8093 16.0542 45.2493 16.0527C45.6651 16.0503 45.947 15.824 45.9383 15.3453C45.9296 14.8975 45.7439 14.6359 45.2735 14.6263Z" fill="#9B9B9B"/>
</svg>
