<svg width="53" height="29" viewBox="0 0 53 29" fill="none" xmlns="http://www.w3.org/2000/svg">
<path d="M44.6445 26.4588C44.6465 26.8489 44.6548 27.2386 44.6406 27.6282C44.6347 27.8032 44.694 27.8395 44.8577 27.837C45.4194 27.8268 45.9816 27.8351 46.5433 27.8326C46.8878 27.8307 46.8467 27.8772 46.8471 27.5395C46.8486 25.6437 46.8476 23.7474 46.8486 21.8511C46.8486 21.7692 46.8344 21.6859 46.8633 21.606C46.8035 21.6692 46.8275 21.7481 46.827 21.8207C46.8256 22.4505 46.8256 23.0798 46.8256 23.7096C46.8256 24.9992 46.8256 26.2887 46.8261 27.5783C46.8266 27.6983 46.8511 27.816 46.655 27.813C46.0482 27.8037 45.441 27.8062 44.8337 27.812C44.6857 27.8135 44.6616 27.7454 44.6636 27.6199C44.6685 27.2381 44.6665 26.8553 44.6636 26.473C44.6626 26.3946 44.6945 26.3064 44.6224 26.2387C44.6626 26.3093 44.6435 26.3858 44.6445 26.4588Z" fill="#292971"/>
<path fill-rule="evenodd" clip-rule="evenodd" d="M0.313606 22.2098C0.277336 22.1309 0.29106 22.0471 0.29106 21.9658C0.29057 15.421 0.29008 8.87678 0.29106 2.33156C0.29106 1.18122 0.982636 0.29653 2.06926 0.0539145C2.26678 0.00980264 2.46921 0 2.67212 0C18.4676 0 34.2626 0 50.0576 0.000980264C51.2971 0.000980264 52.1946 0.718534 52.4078 1.88554C52.4396 2.06052 52.4357 2.24382 52.4357 2.42321C52.4367 8.9155 52.4367 15.4078 52.4367 21.8996C52.4367 21.9898 52.4396 22.0795 52.4411 22.1692C52.3764 22.2334 52.2921 22.2339 52.2098 22.2378C52.0902 22.2432 51.9706 22.2402 51.8505 22.2402C34.864 22.2402 17.878 22.2402 0.891472 22.2373C0.69934 22.2368 0.502797 22.2848 0.313606 22.2098Z" fill="#9B9B9B"/>
<path fill-rule="evenodd" clip-rule="evenodd" d="M0.313505 22.2098C0.399278 22.1706 0.490443 22.1829 0.579647 22.1829C17.7098 22.1824 34.8404 22.1819 51.9705 22.1814C52.1273 22.1814 52.2847 22.1731 52.441 22.1687C52.4528 22.2417 52.4758 22.3152 52.4758 22.3878C52.4753 23.0813 52.4709 23.7753 52.467 24.4689C52.4116 24.5551 52.3234 24.5693 52.2317 24.5747C52.1342 24.5801 52.0366 24.5782 51.9391 24.5782C34.8982 24.5786 17.8573 24.5786 0.816871 24.5762C0.651696 24.5757 0.469857 24.6316 0.326249 24.4904C0.282137 23.7307 0.306643 22.97 0.313505 22.2098Z" fill="#8C8C8C"/>
<path fill-rule="evenodd" clip-rule="evenodd" d="M26.3915 26.7573C34.9747 26.7573 43.5574 26.7573 52.1406 26.7573C52.4768 26.7573 52.4768 26.7573 52.4342 27.0916C52.3008 28.1346 51.3632 28.9766 50.3104 28.9982C50.1305 29.0016 49.9507 28.9992 49.7703 28.9992C34.0586 28.9992 18.3465 28.9992 2.63429 28.9992C1.50208 28.9992 0.608574 28.3022 0.365469 27.2312C0.25911 26.7627 0.261561 26.7588 0.732088 26.7588C9.28538 26.7588 17.8382 26.7588 26.3915 26.7588C26.3915 26.7578 26.3915 26.7573 26.3915 26.7573Z" fill="#8C8C8C"/>
<path fill-rule="evenodd" clip-rule="evenodd" d="M0.326262 24.4909C0.618871 24.4919 0.91099 24.4944 1.20311 24.4944C18.1872 24.4948 35.1712 24.4948 52.1563 24.4944C52.2602 24.4944 52.3665 24.5086 52.4675 24.4694C52.4699 25.159 52.4685 25.8486 52.4773 26.5387C52.4793 26.6857 52.418 26.7156 52.2901 26.7098C52.1332 26.7009 51.9754 26.7073 51.8176 26.7073C34.7394 26.7073 17.6608 26.7068 0.582111 26.7132C0.345377 26.7132 0.293423 26.6421 0.298815 26.4216C0.313028 25.8599 0.302736 25.2972 0.304206 24.7355C0.304696 24.6532 0.31891 24.5723 0.326262 24.4909Z" fill="#9B9B9B"/>
<path fill-rule="evenodd" clip-rule="evenodd" d="M26.6748 15.945C25.0632 15.945 23.4517 15.9445 21.8401 15.9455C21.5343 15.9455 21.4608 15.8509 21.524 15.5485C21.5456 15.445 21.6186 15.4411 21.6906 15.4377C21.8406 15.4308 21.9906 15.4338 22.1401 15.4318C22.4018 15.4274 22.5199 15.3215 22.5542 15.0613C22.5591 15.025 22.5582 14.9868 22.5582 14.949C22.5444 12.7679 22.5964 10.5868 22.5136 8.40576C22.4945 7.90239 22.3097 7.65341 21.8308 7.49901C21.774 7.48088 21.7161 7.46715 21.6583 7.45C21.5554 7.4201 21.4676 7.39266 21.4686 7.24709C21.4696 7.1074 21.5279 7.04662 21.6509 7.00839C22.3146 6.80156 22.9767 6.59129 23.5914 6.25849C23.6492 6.22712 23.7183 6.21487 23.783 6.19575C23.931 6.15213 24.0158 6.20556 24.0251 6.3624C24.0295 6.44474 24.0291 6.52757 24.0271 6.60991C23.9683 9.36789 23.956 12.1259 23.9967 14.8843C23.9977 14.952 24.0011 15.0191 24.008 15.0863C24.031 15.3117 24.1398 15.4294 24.3834 15.4411C24.8108 15.4607 25.2367 15.4632 25.6636 15.4416C25.9038 15.4298 26.0136 15.3009 26.0523 15.0853C26.0656 15.0127 26.0651 14.9363 26.0651 14.8613C26.0548 12.7552 26.095 10.6486 26.0229 8.54251C25.9994 7.85632 25.8528 7.6539 25.1863 7.45588C25.0789 7.42353 24.9735 7.40785 24.974 7.24807C24.9745 7.09465 25.0485 7.04417 25.1779 7.003C25.8318 6.79322 26.489 6.58933 27.0968 6.25849C27.161 6.22369 27.238 6.21095 27.31 6.19183C27.4384 6.15752 27.5139 6.20457 27.5237 6.34083C27.5291 6.40798 27.5335 6.47513 27.532 6.54228C27.4786 9.3375 27.4433 12.1332 27.5036 14.9289C27.5046 14.9745 27.5046 15.0196 27.51 15.0637C27.5428 15.3421 27.6065 15.4102 27.8884 15.4347C28.3221 15.473 28.7564 15.4656 29.1911 15.4411C29.3686 15.4308 29.4401 15.3529 29.4494 15.1779C29.5063 14.1138 29.4798 13.0498 29.4818 11.9852C29.4823 11.6377 29.3102 11.4063 28.9804 11.2946C28.9167 11.273 28.8534 11.25 28.7877 11.2343C28.6843 11.2098 28.6407 11.1495 28.6392 11.0417C28.6378 10.9368 28.6775 10.8716 28.775 10.8363C29.3921 10.6109 30.0072 10.3795 30.6272 10.1609C30.8796 10.0717 30.9277 10.1197 30.9213 10.3923C30.884 11.9205 30.8693 13.4497 30.9208 14.9779C30.9355 15.4186 30.96 15.4303 31.3894 15.4308C31.4345 15.4308 31.4791 15.4303 31.5242 15.4303C31.7952 15.4308 31.9094 15.6004 31.805 15.8474C31.7491 15.9788 31.63 15.942 31.531 15.941C30.3841 15.9342 29.2372 15.9229 28.0908 15.9151C27.6188 15.9116 27.1463 15.9146 26.6738 15.9146C26.6748 15.9263 26.6748 15.9361 26.6748 15.945Z" fill="white"/>
<path fill-rule="evenodd" clip-rule="evenodd" d="M5.80641 11.2093C5.86915 9.40466 6.52446 7.90486 8.08994 6.90303C8.98345 6.33153 9.98871 6.15754 11.0366 6.22174C11.8826 6.2737 12.6893 6.47955 13.4397 6.88146C13.5735 6.95302 13.6461 6.93047 13.6804 6.78147C13.697 6.70943 13.7289 6.63983 13.7436 6.5668C13.775 6.4124 13.8882 6.42417 14.0039 6.42417C14.1377 6.42368 14.1637 6.50798 14.1715 6.61483C14.2333 7.47354 14.3612 8.32588 14.4612 9.18067C14.4675 9.23263 14.4646 9.28801 14.4818 9.33604C14.5558 9.55023 14.4102 9.57915 14.2602 9.63502C14.0764 9.70413 14.0544 9.57376 14.0147 9.46593C13.7088 8.64153 13.251 7.92985 12.5384 7.39316C11.3464 6.49671 9.5966 6.58395 8.63496 7.60441C8.08111 8.19207 7.81007 8.916 7.69293 9.69923C7.48217 11.1113 7.70126 12.4484 8.48204 13.6585C8.96384 14.404 9.61376 14.9868 10.5171 15.1294C11.9242 15.3509 13.1515 14.951 14.1465 13.906C14.2249 13.8232 14.2779 13.6865 14.419 13.8413C14.5259 13.959 14.694 14.0291 14.5244 14.2369C13.378 15.6421 11.9257 16.29 10.1009 16.1087C8.86778 15.9857 7.82036 15.5132 6.99204 14.5937C6.34017 13.8703 6.03138 12.9856 5.8716 12.0406C5.82553 11.7676 5.81425 11.4902 5.80641 11.2093Z" fill="white"/>
<path fill-rule="evenodd" clip-rule="evenodd" d="M18.1539 16.0935C16.4747 16.168 15.1988 14.6363 15.2601 13.0282C15.3199 11.4632 16.6663 10.155 18.321 10.1595C19.959 10.1644 21.2672 11.4701 21.2613 13.0939C21.2549 14.7559 19.8639 16.0989 18.1539 16.0935Z" fill="white"/>
<path fill-rule="evenodd" clip-rule="evenodd" d="M35.3565 12.5381C34.8316 12.5381 34.3071 12.5376 33.7822 12.5386C33.7052 12.5386 33.6199 12.5106 33.6155 12.6488C33.5954 13.2517 33.6739 13.8261 34.0292 14.3383C34.7335 15.3534 36.1726 15.399 36.923 14.4148C37.0474 14.2521 37.1362 14.2648 37.2881 14.3569C37.4616 14.4628 37.4018 14.576 37.3327 14.6961C36.82 15.5842 36.052 16.0533 35.0256 16.093C34.7257 16.1043 34.4277 16.0832 34.1307 16.0327C33.0303 15.845 32.4103 14.7692 32.2819 14.0011C32.1848 13.4213 32.1309 12.8268 32.3084 12.2626C32.7362 10.9015 33.6097 10.1933 34.9634 10.1599C36.202 10.1291 37.1455 10.9711 37.2327 12.2141C37.2508 12.4714 37.1969 12.5337 36.9303 12.5356C36.4059 12.539 35.8809 12.5366 35.3565 12.5366C35.3565 12.5376 35.3565 12.5381 35.3565 12.5381Z" fill="#FEFFFF"/>
<path fill-rule="evenodd" clip-rule="evenodd" d="M45.0964 10.1521C45.5806 10.1418 46.0281 10.2364 46.4428 10.4736C46.5442 10.5315 46.6276 10.6001 46.6506 10.7221C46.7021 11.001 46.7496 11.2819 46.8104 11.5593C46.8427 11.7107 46.7702 11.7686 46.6486 11.8279C46.5276 11.8867 46.4634 11.8534 46.3835 11.7602C46.1526 11.4941 45.9203 11.2289 45.6733 10.9785C45.3527 10.655 44.8513 10.5839 44.447 10.7888C44.1789 10.925 44.022 11.1427 44.0201 11.449C44.0181 11.748 44.1671 11.9587 44.4323 12.0906C44.7288 12.2381 45.0503 12.3116 45.366 12.4008C45.5968 12.466 45.8237 12.5386 46.0369 12.6498C47.0956 13.2061 47.3123 14.5319 46.4869 15.4024C46.1487 15.7597 45.7247 15.9523 45.2508 16.0356C44.6548 16.1396 44.0735 16.0646 43.5084 15.8528C43.2976 15.7744 43.1618 15.6504 43.1368 15.4009C43.1001 15.0294 43.0349 14.6598 42.9658 14.2927C42.9413 14.1643 42.98 14.106 43.0913 14.0805C43.2045 14.055 43.3211 13.958 43.4182 14.1339C43.5883 14.4408 43.7652 14.7461 43.9627 15.0358C44.2808 15.5029 44.8469 15.672 45.3704 15.4774C45.6738 15.3647 45.8747 15.1622 45.9129 14.828C45.9531 14.481 45.8267 14.2133 45.5253 14.032C45.1876 13.8296 44.8057 13.7428 44.4381 13.6198C44.1887 13.5365 43.9509 13.4311 43.7265 13.2943C42.6379 12.6322 42.8947 11.1706 43.6074 10.6462C44.0558 10.3158 44.5435 10.1212 45.0964 10.1521Z" fill="white"/>
<path fill-rule="evenodd" clip-rule="evenodd" d="M40.2053 11.3039C40.3524 11.1064 40.4592 10.9471 40.5813 10.8015C40.9057 10.4143 41.2714 10.0913 41.812 10.0614C42.1051 10.0457 42.3453 10.1394 42.4859 10.4104C42.6153 10.6604 42.5893 10.9054 42.4217 11.128C42.2374 11.3725 41.9938 11.5044 41.6806 11.4465C41.565 11.426 41.4508 11.3799 41.3439 11.3299C41.0077 11.1721 40.7195 11.2417 40.4999 11.547C40.3465 11.7612 40.2852 12.0092 40.2843 12.2665C40.2784 13.1664 40.2789 14.0653 40.2833 14.9652C40.2852 15.3431 40.395 15.4465 40.7661 15.449C40.8861 15.4494 41.0062 15.4553 41.1258 15.4475C41.289 15.4367 41.3719 15.4784 41.3625 15.6695C41.3488 15.9558 41.3567 15.9636 41.0748 15.9479C40.1161 15.895 39.1574 15.8945 38.1983 15.945C38.1154 15.9499 37.9983 16.0013 37.9512 15.9023C37.8929 15.7793 37.9101 15.6367 37.9439 15.5058C37.9625 15.4352 38.0424 15.4514 38.0997 15.4499C38.2492 15.446 38.3997 15.4539 38.5492 15.4436C38.7403 15.4298 38.8536 15.3284 38.8531 15.1269C38.8506 14.1227 38.8521 13.1179 38.8408 12.1141C38.8369 11.7847 38.6462 11.5686 38.3649 11.4054C38.234 11.3299 38.0002 11.323 38.01 11.1142C38.0203 10.901 38.2536 10.8996 38.3977 10.8275C38.8251 10.6128 39.2584 10.4099 39.6927 10.2099C39.9872 10.0747 40.0642 10.1242 40.099 10.4383C40.1289 10.7064 40.1642 10.9736 40.2053 11.3039Z" fill="white"/>
<path fill-rule="evenodd" clip-rule="evenodd" d="M30.8419 8.3989C30.8458 8.86256 30.4806 9.238 30.0268 9.23506C29.5734 9.2331 29.2146 8.87727 29.2097 8.42487C29.2053 7.9568 29.5602 7.59361 30.0233 7.59263C30.4777 7.59165 30.8379 7.947 30.8419 8.3989Z" fill="#FEFFFF"/>
<path fill-rule="evenodd" clip-rule="evenodd" d="M16.8011 12.9116C16.8021 12.667 16.8158 12.1842 16.9912 11.7318C17.1672 11.2755 17.4152 10.8702 17.9401 10.7354C18.3107 10.6408 18.6185 10.756 18.8856 11.0074C19.3032 11.4005 19.4973 11.9083 19.5752 12.4582C19.6772 13.1782 19.6237 13.8908 19.3733 14.5809C19.3091 14.7579 19.2243 14.9235 19.1116 15.074C18.6518 15.6857 17.7578 15.6813 17.3025 15.0652C16.9476 14.5844 16.8035 14.033 16.8011 12.9116Z" fill="#9B9B9B"/>
<path fill-rule="evenodd" clip-rule="evenodd" d="M34.5767 12.0455C34.3145 12.0455 34.0518 12.0421 33.7896 12.0474C33.6925 12.0489 33.6494 12.0244 33.6773 11.921C33.7479 11.6607 33.8244 11.4029 33.9738 11.1745C34.2302 10.7809 34.6478 10.5967 35.0722 10.6927C35.3982 10.7662 35.6261 11.0789 35.6923 11.5441C35.6986 11.5882 35.7006 11.6338 35.704 11.6779C35.7251 11.9489 35.6628 12.0298 35.3859 12.0416C35.1168 12.0528 34.8463 12.044 34.5767 12.044V12.0455Z" fill="#9B9B9B"/>
</svg>
