<svg width="53" height="60" viewBox="0 0 53 60" fill="none" xmlns="http://www.w3.org/2000/svg">
<path d="M6.07397 29.213C6.07397 18.076 15.102 9.04797 26.239 9.04797C37.376 9.04797 46.404 18.076 46.404 29.213C46.404 40.35 37.376 49.378 26.239 49.378" fill="white"/>
<path d="M6.07397 29.213C6.07397 18.076 15.102 9.04797 26.239 9.04797C37.376 9.04797 46.404 18.076 46.404 29.213C46.404 40.35 37.376 49.378 26.239 49.378" stroke="#9B9B9C" stroke-width="2" stroke-miterlimit="10" stroke-linecap="round" stroke-linejoin="round"/>
<path d="M11.521 36.557C11.521 37.26 10.952 37.829 10.249 37.829H7.199C6.496 37.829 5.927 37.26 5.927 36.557V25.825C5.927 25.122 6.496 24.553 7.199 24.553H10.248C10.951 24.553 11.52 25.122 11.52 25.825L11.521 36.557Z" fill="white" stroke="#9B9B9C" stroke-width="2" stroke-miterlimit="10" stroke-linecap="round" stroke-linejoin="round"/>
<path d="M5.92688 33.874C5.92688 34.226 5.64288 34.51 5.29088 34.51H3.76588C3.41388 34.51 3.12988 34.226 3.12988 33.874V28.508C3.12988 28.156 3.41388 27.872 3.76588 27.872H5.29088C5.64288 27.872 5.92688 28.156 5.92688 28.508V33.874Z" fill="white" stroke="#9B9B9C" stroke-miterlimit="10" stroke-linecap="round" stroke-linejoin="round"/>
<path d="M49.9269 33.874C49.9269 34.226 49.6429 34.51 49.2909 34.51H47.7659C47.4139 34.51 47.1299 34.226 47.1299 33.874V28.508C47.1299 28.156 47.4139 27.872 47.7659 27.872H49.2909C49.6429 27.872 49.9269 28.156 49.9269 28.508V33.874Z" fill="white" stroke="#9B9B9C" stroke-miterlimit="10" stroke-linecap="round" stroke-linejoin="round"/>
<path d="M25.8919 47.979C26.2439 47.979 26.5289 48.263 26.5289 48.615V50.14C26.5289 50.492 26.2439 50.776 25.8919 50.776H20.5269C20.1749 50.776 19.8899 50.492 19.8899 50.14V48.615C19.8899 48.263 20.1749 47.979 20.5269 47.979H25.8919Z" fill="white" stroke="#9B9B9C" stroke-miterlimit="10" stroke-linecap="round" stroke-linejoin="round"/>
<path d="M46.9929 36.557C46.9929 37.26 46.4239 37.829 45.7219 37.829H42.6719C41.9689 37.829 41.3999 37.26 41.3999 36.557V25.825C41.3999 25.122 41.9689 24.553 42.6719 24.553H45.7219C46.4239 24.553 46.9929 25.122 46.9929 25.825V36.557Z" fill="white" stroke="#9B9B9C" stroke-width="2" stroke-miterlimit="10" stroke-linecap="round" stroke-linejoin="round"/>
</svg>
