<svg width="52" height="52" viewBox="0 0 52 52" fill="none" xmlns="http://www.w3.org/2000/svg">
<rect width="1440" height="1024" transform="translate(-366 -567)" fill="white"/>
<path d="M26.0005 50.6419C39.6095 50.6419 50.6419 39.6094 50.6419 26C50.6419 12.3907 39.6095 1.35815 26.0005 1.35815C12.3914 1.35815 1.35901 12.3907 1.35901 26C1.35901 39.6094 12.3914 50.6419 26.0005 50.6419Z" stroke="#B2B3B3" stroke-width="2" stroke-miterlimit="10"/>
<path d="M14.0808 22.9696V17.3297C14.0808 15.9137 15.2298 14.7629 16.6467 14.7629H21.1058" stroke="#B2B3B3" stroke-width="2" stroke-miterlimit="10"/>
<path d="M37.9183 22.9696V17.3297C37.9183 15.9137 36.7684 14.7629 35.3524 14.7629H30.8923" stroke="#B2B3B3" stroke-width="2" stroke-miterlimit="10"/>
<path d="M37.9183 29.6751V35.315C37.9183 36.731 36.7684 37.8818 35.3524 37.8818H30.8923" stroke="#B2B3B3" stroke-width="2" stroke-miterlimit="10"/>
<path d="M14.0808 29.6751V35.315C14.0808 36.731 15.2298 37.8818 16.6467 37.8818H21.1058" stroke="#B2B3B3" stroke-width="2" stroke-miterlimit="10"/>
<path d="M31.4872 29.6018C31.4872 31.0188 30.3373 32.1686 28.9213 32.1686H23.0941C21.6772 32.1686 20.5282 31.0188 20.5282 29.6018V23.8831C20.5282 22.4662 21.6772 21.3163 23.0941 21.3163H28.9213C30.3373 21.3163 31.4872 22.4662 31.4872 23.8831V29.6018Z" stroke="#B2B3B3" stroke-width="2" stroke-miterlimit="10"/>
</svg>
