<svg width="45" height="46" viewBox="0 0 45 46" fill="none" xmlns="http://www.w3.org/2000/svg">
<path d="M21.9573 40.8566C31.7963 40.8566 39.7723 32.8822 39.7723 23.0452C39.7723 13.2082 31.7963 5.23381 21.9573 5.23381C12.1183 5.23381 4.14221 13.2082 4.14221 23.0452C4.14221 32.8822 12.1183 40.8566 21.9573 40.8566Z" stroke="#9B9B9C" stroke-width="2" stroke-miterlimit="10" stroke-linecap="round" stroke-linejoin="round"/>
<path d="M21.9573 27.4015C24.3632 27.4015 26.3136 25.4515 26.3136 23.0461C26.3136 20.6407 24.3632 18.6907 21.9573 18.6907C19.5514 18.6907 17.601 20.6407 17.601 23.0461C17.601 25.4515 19.5514 27.4015 21.9573 27.4015Z" stroke="#9B9B9C" stroke-width="2" stroke-miterlimit="10" stroke-linecap="round" stroke-linejoin="round"/>
<path d="M21.9573 1.00006V10.3493" stroke="#9B9B9C" stroke-width="2" stroke-miterlimit="10" stroke-linecap="round" stroke-linejoin="round"/>
<path d="M21.9573 35.4934V44.8418" stroke="#9B9B9C" stroke-width="2" stroke-miterlimit="10" stroke-linecap="round" stroke-linejoin="round"/>
<path d="M33.773 22.6306H43.1241" stroke="#9B9B9C" stroke-width="2" stroke-miterlimit="10" stroke-linecap="round" stroke-linejoin="round"/>
<path d="M1 22.6306H10.3503" stroke="#9B9B9C" stroke-width="2" stroke-miterlimit="10" stroke-linecap="round" stroke-linejoin="round"/>
</svg>
