<svg width="53" height="60" viewBox="0 0 53 60" fill="none" xmlns="http://www.w3.org/2000/svg">
<path d="M18.0959 48.104C18.0959 48.725 17.5919 49.228 16.9709 49.228H8.39793C7.77693 49.228 7.27393 48.725 7.27393 48.104V24.744C7.27393 24.122 7.77693 23.619 8.39793 23.619H16.9699C17.5909 23.619 18.0949 24.122 18.0949 24.744V48.104H18.0959Z" stroke="#9B9B9C" stroke-width="2" stroke-miterlimit="10" stroke-linecap="round" stroke-linejoin="round"/>
<path d="M19.5599 25.747C19.5599 25.747 24.2429 20.804 26.8449 16.9C29.4469 12.996 28.1469 8.42301 30.4889 6.28701C32.8299 4.15001 36.7339 5.19101 37.2539 9.87501C37.7749 14.559 33.3519 22.624 33.3519 22.624C33.3519 22.624 40.8979 22.885 45.8409 23.405C45.8409 23.405 50.4909 23.731 50.2959 26.951C50.1019 30.171 47.3689 31.635 47.3689 31.635C47.3689 31.635 48.9309 32.22 48.9309 34.855C48.9309 37.49 45.3209 38.075 45.3209 38.075C45.3209 38.075 47.0769 38.27 47.3699 41.296C47.6629 44.32 44.0529 44.223 44.0529 44.223C44.0529 44.223 44.4429 45.882 44.4429 47.833C44.4429 49.784 39.8569 49.979 39.8569 49.979H23.6569C23.6569 49.979 22.6199 49.867 20.9259 48.613C19.2319 47.359 18.7799 46.369 18.7799 46.369L18.0959 26.757L19.5599 25.747Z" stroke="#9B9B9C" stroke-width="2" stroke-miterlimit="10" stroke-linecap="round" stroke-linejoin="round"/>
</svg>
