<svg width="66" height="31" viewBox="0 0 66 31" fill="none" xmlns="http://www.w3.org/2000/svg">
<path d="M12.6517 10.9078H8.22597V30.1917H4.42756V10.9078H0V7.45407H12.6517V10.9098V10.9078Z" fill="white"/>
<path d="M24.49 30.1917H20.6947V10.9077H24.49V30.1917Z" fill="white"/>
<path d="M37.8605 30.1916H34.0621V7.4527H37.8605V30.1903V30.1916Z" fill="white"/>
<path d="M59.3629 26.7359H65.8516V30.1916H55.5645V7.4527H59.3629V26.7359Z" fill="white"/>
<path d="M48.5412 7.46494H44.597L38.0786 18.8222L44.597 30.1794H48.5412L42.0229 18.8222L48.5412 7.46494Z" fill="white"/>
<path d="M27.4665 3.4591C25.5963 1.40145 23.1452 0.37262 20.696 0.37262V1.64285C22.8498 1.64285 25.0055 2.54928 26.6494 4.35669C28.2921 6.16479 29.1147 8.53593 29.116 10.9071H30.2705C30.2705 8.21157 29.3366 5.5154 27.4658 3.45774L27.4665 3.4591Z" fill="white"/>
<path d="M20.6959 2.91716V4.18807C22.2602 4.18807 23.8225 4.84426 25.0147 6.15529C26.2063 7.46631 26.8027 9.18601 26.8027 10.9071H27.9578C27.959 8.86302 27.2495 6.81692 25.8311 5.25566C24.4128 3.69371 22.5531 2.91512 20.6947 2.9158L20.6959 2.91716Z" fill="white"/>
<path d="M20.6947 5.46033V6.73124C21.6675 6.73192 22.6384 7.14195 23.3782 7.95522C24.1192 8.76986 24.49 9.83948 24.49 10.9071H25.6451C25.6464 9.51241 25.1631 8.12046 24.1958 7.05627C23.2286 5.99209 21.9623 5.45829 20.6947 5.46033Z" fill="white"/>
</svg>
