<svg width="114" height="27" viewBox="0 0 114 27" fill="none" xmlns="http://www.w3.org/2000/svg">
<path fill-rule="evenodd" clip-rule="evenodd" d="M22.718 21.3585C21.744 20.2468 20.0585 20.0818 18.8416 21.1315C18.1937 21.6906 17.5424 21.8734 16.7455 21.8691C15.9764 21.8652 15.2069 21.9232 14.4373 21.9539C13.255 21.9241 12.0727 21.8963 10.8904 21.8639C10.2958 21.8474 9.59773 22.0405 9.64494 21.0068C9.68911 20.0406 10.3426 20.1619 10.9532 20.1597C12.2927 20.155 13.6326 20.1402 14.9721 20.1645C16.0894 20.1848 15.9691 19.4213 16.0102 18.6856C16.0552 17.8822 15.7443 17.5834 14.9405 17.6115C13.6023 17.657 12.2559 17.5522 10.9238 17.6518C9.85931 17.7315 9.60509 17.2924 9.61852 16.3388C9.6549 13.7637 9.58128 11.1865 9.64883 8.61235C9.68608 7.19275 8.78313 7.4396 7.91266 7.37291C6.87199 7.29279 6.58963 7.70897 6.61258 8.702C6.67018 11.2255 6.62428 13.7512 6.6351 16.2755C6.63813 17.0013 6.60002 17.5951 5.62085 17.6397C4.56026 17.6878 4.63129 17.0208 4.63259 16.3288C4.63822 13.0314 4.64428 9.73357 4.63215 6.43661C4.62956 5.79913 4.74389 5.28551 5.20121 4.76106C6.39778 3.3904 6.33932 1.85473 5.17046 0.782884C4.03322 -0.259082 2.51661 -0.261247 1.42181 0.77812C0.175866 1.95997 0.0823228 3.34579 1.32307 4.72468C1.8657 5.32795 2.00818 5.91563 2.00472 6.66397C1.9861 10.734 2.01555 14.8048 1.98177 18.8748C1.9744 19.7622 2.18314 20.1844 3.17054 20.184C4.23719 20.184 5.57148 19.721 6.31333 20.4187C7.1327 21.1896 6.54632 22.5685 6.61128 23.678C6.65113 24.3579 6.7975 24.7295 7.57053 24.7135C10.4509 24.655 13.3321 24.6329 16.2129 24.5974C17.0509 24.9118 18.0006 24.5437 18.8139 25.3024C20.0533 26.4592 21.5552 26.311 22.6435 25.1595C23.6162 24.1301 23.65 22.4216 22.718 21.3585Z" fill="#9B9B9B"/>
<path d="M63.2854 9.90378C62.9385 10.0839 62.8705 10.1272 62.4786 9.83102C61.5518 9.13162 60.3669 9.57768 60.3604 10.4971C60.3353 14.0937 60.3669 17.6904 60.3319 21.287C60.3232 22.1904 60.8056 22.2463 61.4998 22.2688C62.2664 22.2943 62.6496 22.0912 62.5985 21.2398C62.5409 20.278 62.5851 19.3096 62.5851 18.1425C65.4126 19.6491 67.125 19.4772 68.8841 17.6475C70.4705 15.9984 70.6528 12.9535 69.2778 11.0843C67.8257 9.10996 65.6586 8.66823 63.2854 9.90378ZM65.3503 17.2227C63.783 17.2781 62.4409 15.9174 62.4322 14.2652C62.4231 12.4974 63.7241 11.0796 65.3139 11.1242C66.821 11.1666 67.9816 12.4797 67.9885 14.1509C67.9963 15.8221 66.8387 17.1698 65.3503 17.2227Z" fill="#9B9B9B"/>
<path d="M101.536 10.0198C99.7763 8.75353 97.9812 8.96573 96.012 10.2788C96.012 9.10691 95.97 8.1875 96.0242 7.27373C96.0735 6.44353 95.8579 6.0659 94.9255 6.1066C94.1122 6.14168 93.7337 6.29456 93.7462 7.22522C93.7956 10.724 93.7934 14.2245 93.7467 17.7233C93.7341 18.6708 94.2326 19.0788 94.9359 18.76C96.1372 18.2148 97.0783 18.7943 98.1267 19.0926C98.8218 19.2901 99.5515 19.2169 100.254 18.9787C102.218 18.3135 103.262 16.8662 103.529 14.8958C103.796 12.9309 103.193 11.2121 101.536 10.0198ZM98.7313 17.2313C97.2472 17.2872 95.8778 15.865 95.847 14.2353C95.8159 12.5797 97.0557 11.1766 98.5905 11.1306C100.141 11.0852 101.37 12.4333 101.368 14.1786C101.367 15.8472 100.22 17.1754 98.7313 17.2313Z" fill="#9B9B9B"/>
<path d="M90.9248 10.9942C90.92 9.64653 90.0569 8.97397 88.9487 9.70629C88.3463 10.1043 88.1969 9.91979 87.7543 9.69763C85.779 8.70547 83.6081 9.1905 82.2075 10.8829C80.7637 12.6269 80.7078 15.5986 82.0863 17.3322C83.544 19.1654 85.6586 19.6799 87.7179 18.6578C88.1666 18.4352 88.3662 18.2594 88.966 18.6401C90.1188 19.3715 90.9191 18.7388 90.9278 17.3175C90.9339 16.2894 90.9287 15.2613 90.9274 14.2332C90.9252 13.1535 90.9282 12.0739 90.9248 10.9942ZM85.986 17.2447C84.5049 17.2248 83.3114 15.8801 83.2993 14.2167C83.2867 12.4502 84.4751 11.119 86.0575 11.1272C87.5971 11.1363 88.8759 12.5403 88.8564 14.1998C88.8374 15.8338 87.4884 17.2647 85.986 17.2447Z" fill="#9B9B9B"/>
<path d="M41.673 9.20653C38.7975 9.19873 36.51 11.4407 36.5585 14.2184C36.6066 16.965 38.8403 19.1546 41.6137 19.1745C44.5006 19.1953 46.7807 17.0087 46.7997 14.2016C46.8188 11.3732 44.6028 9.21345 41.673 9.20653ZM41.6189 17.2391C40.014 17.1993 38.8295 15.9035 38.8317 14.1912C38.8343 12.3588 40.0412 11.0869 41.7363 11.132C43.3092 11.1731 44.5616 12.5221 44.5668 14.1808C44.5724 15.9325 43.2741 17.2798 41.6189 17.2391Z" fill="#9B9B9B"/>
<path d="M53.2174 9.18184C50.3968 9.15023 48.218 11.245 48.1383 14.0625C48.0587 16.8996 50.2656 19.1481 53.1542 19.1728C55.9345 19.197 58.1964 17.0403 58.2791 14.2856C58.3627 11.5009 56.0943 9.21346 53.2174 9.18184ZM53.2477 17.2521C51.622 17.3192 50.305 15.9542 50.2946 14.1903C50.2838 12.3913 51.5267 11.0757 53.197 11.1164C54.7686 11.1549 56.0206 12.5108 56.0211 14.1747C56.0224 15.8797 54.8444 17.1858 53.2477 17.2521Z" fill="#9B9B9B"/>
<path d="M112.512 16.8177C111.28 16.7493 110.015 17.0438 108.688 16.6046C110.226 14.8104 111.654 13.131 113.101 11.4667C113.518 10.9869 113.637 10.4191 113.432 9.886C113.223 9.34163 112.628 9.59152 112.205 9.58545C110.506 9.55904 108.806 9.5677 107.107 9.58156C106.482 9.58719 105.77 9.35376 105.765 10.4893C105.761 11.5325 106.315 11.5074 107.032 11.491C108.04 11.4671 109.048 11.4849 110.014 11.4849C110.16 12.0314 109.814 12.1778 109.634 12.39C108.336 13.9166 107.046 15.4514 105.699 16.9351C105.269 17.4084 105.05 17.9008 105.258 18.4582C105.47 19.029 106.061 18.7826 106.488 18.7878C108.495 18.8116 110.504 18.7726 112.512 18.8111C113.31 18.8263 113.75 18.692 113.735 17.7332C113.718 16.767 113.154 16.8528 112.512 16.8177Z" fill="#9B9B9B"/>
<path d="M33.9471 16.8212C33.1264 16.8493 32.2967 16.7549 31.4842 16.842C30.3145 16.9663 29.8845 16.6207 29.933 15.357C30.0373 12.6395 29.9234 9.91416 29.988 7.19405C30.0105 6.24 29.6146 6.09795 28.8117 6.11311C28.0599 6.1274 27.5411 6.14645 27.5848 7.15464C27.6606 8.89731 27.6061 10.646 27.6061 12.3918C27.6061 14.1379 27.6381 15.8845 27.5922 17.6297C27.5706 18.4461 27.7425 18.8592 28.6823 18.8233C30.4262 18.7579 32.1741 18.7691 33.9194 18.8094C34.7188 18.8276 34.9851 18.5582 34.983 17.748C34.9808 16.9446 34.6162 16.7987 33.9471 16.8212Z" fill="#9B9B9B"/>
<path d="M78.7139 16.8147C77.8422 16.8545 76.9617 16.7627 76.096 16.842C75.0775 16.9351 74.7873 16.5622 74.8111 15.5519C74.8782 12.7282 74.7999 9.90117 74.8566 7.07669C74.8752 6.14689 74.4127 6.11917 73.7206 6.11571C73.0156 6.11224 72.5635 6.18283 72.5964 7.09011C72.6601 8.83452 72.615 10.5828 72.6142 12.3298C72.6133 14.1275 72.6419 15.9265 72.6003 17.7233C72.5821 18.5154 72.8484 18.8224 73.6574 18.8038C75.3516 18.7644 77.0484 18.77 78.7425 18.8133C79.5013 18.8328 79.8434 18.6535 79.8464 17.7991C79.8499 16.9117 79.4406 16.7814 78.7139 16.8147Z" fill="#9B9B9B"/>
</svg>
