<svg width="84" height="20" viewBox="0 0 84 20" fill="none" xmlns="http://www.w3.org/2000/svg">
<path fill-rule="evenodd" clip-rule="evenodd" d="M73.3761 11.3874C73.9367 11.3852 74.4976 11.377 75.058 11.3852C75.2256 11.3877 75.268 11.341 75.2678 11.1816C75.2632 7.81933 75.264 4.45688 75.2662 1.09462C75.2662 1.02995 75.2314 0.954497 75.3021 0.900024C75.3387 0.959501 75.3209 1.02456 75.3209 1.08692C75.3219 4.46208 75.3199 7.83704 75.3263 11.2122C75.3267 11.3929 75.2754 11.431 75.0974 11.4266C74.5849 11.4145 74.0721 11.4233 73.5591 11.4206C73.4982 11.4205 73.426 11.4528 73.3761 11.3874Z" fill="#292970"/>
<path fill-rule="evenodd" clip-rule="evenodd" d="M80.6869 9.42305C79.3558 9.42121 78.2492 8.28552 78.2516 6.92348C78.2537 5.5439 79.3646 4.40748 80.7089 4.40951C82.0289 4.41172 83.131 5.55866 83.127 6.92661C83.1233 8.3226 82.0458 9.42471 80.6869 9.42305Z" fill="#F6F5F5"/>
<path d="M13.9773 4.55122C13.1884 4.56097 12.3991 4.56584 11.6103 4.54927C11.3811 4.54439 11.3455 4.61704 11.346 4.82424C11.3528 7.94796 11.3509 11.0712 11.3509 14.1949C11.3509 14.2812 11.3509 14.3675 11.3509 14.4791C11.2992 14.4455 11.2768 14.4367 11.2631 14.4211C10.6196 13.664 9.97698 12.9068 9.33439 12.1496C7.22575 9.6651 5.11662 7.18056 3.0109 4.69358C2.92314 4.58973 2.83246 4.55171 2.69838 4.55268C1.86858 4.55853 1.0378 4.55463 0.207993 4.55853C0.144612 4.55853 0.0602664 4.51221 0.0158997 4.60534C0.0914695 4.68139 0.0558785 4.77744 0.0558785 4.86325C0.0583163 9.60221 0.0588038 14.3412 0.0597789 19.0796C0.0597789 19.3961 0.0597789 19.3975 0.380097 19.3975C1.12751 19.398 1.87492 19.3946 2.62233 19.4C2.76469 19.4009 2.89487 19.3853 3.0109 19.2995C3.01334 19.2093 3.0187 19.1186 3.0187 19.0289C3.01919 15.9627 3.0187 12.897 3.0187 9.83086C3.0187 9.74359 3.0187 9.65681 3.0187 9.51493C3.10256 9.60708 3.15083 9.65827 3.19666 9.71093C3.62911 10.216 4.0601 10.7221 4.49256 11.2272C6.81328 13.9409 9.13498 16.6546 11.4538 19.3707C11.5362 19.4677 11.619 19.5057 11.7463 19.5053C12.4942 19.4994 13.2421 19.497 13.9905 19.5067C14.1557 19.5087 14.1962 19.457 14.1957 19.2985C14.1923 14.4567 14.1923 9.61537 14.1962 4.77354C14.1962 4.60582 14.1538 4.54927 13.9773 4.55122Z" fill="#9B9B9B"/>
<path d="M50.0192 3.21777C49.1977 3.22947 48.3761 3.22801 47.5546 3.23142C47.5556 3.96616 47.558 4.70138 47.558 5.43562C47.558 6.2547 47.5561 7.07329 47.5546 7.89237C47.5546 7.94795 47.5678 8.00939 47.5059 8.04595C47.2675 7.85044 47.0398 7.64129 46.7638 7.49454C45.2792 6.70666 43.7171 6.53602 42.0995 6.94848C38.9684 7.74708 36.9022 10.8464 37.2869 13.9453C37.4682 15.4045 38.0372 16.6726 39.0596 17.715C40.4633 19.1469 42.1784 19.8149 44.1896 19.6505C45.1851 19.5686 46.1051 19.2556 46.915 18.6511C47.1821 18.4517 47.3923 18.1977 47.6239 17.8759C47.6239 18.3815 47.6312 18.8164 47.6204 19.2503C47.6161 19.4151 47.6697 19.456 47.8291 19.4541C48.5029 19.4453 49.1777 19.439 49.8505 19.4565C50.084 19.4633 50.125 19.3878 50.125 19.1728C50.122 15.8769 50.124 12.5811 50.1333 9.28578C50.1391 7.33803 50.1606 5.39077 50.1737 3.44302C50.1742 3.33625 50.2166 3.21485 50.0192 3.21777ZM43.7327 16.8764C41.5856 16.873 39.9586 15.0852 39.9596 13.1935C39.9596 11.1112 41.6241 9.43449 43.6903 9.43449C45.7151 9.43449 47.3952 11.118 47.3952 13.1467C47.3947 15.2275 45.7722 16.8793 43.7327 16.8764Z" fill="#9B9B9B"/>
<path d="M62.3951 8.19222C60.5175 6.65548 58.3772 6.36392 56.133 7.16155C53.7421 8.01037 52.3457 9.75433 51.9362 12.2725C51.7529 13.4002 51.8558 14.4986 52.2687 15.5581C53.6348 19.0645 57.5152 20.6881 60.9748 19.1957C62.496 18.5394 63.6164 17.4561 64.2955 15.9325C64.3511 15.8072 64.3896 15.7404 64.1956 15.6873C63.4803 15.4903 62.77 15.2719 62.0645 15.0423C61.9022 14.9896 61.8553 15.0393 61.79 15.1651C61.1123 16.4596 59.4474 17.4873 57.7341 17.1207C56.5962 16.8764 55.7303 16.2348 55.097 15.2256C56.6508 14.799 58.17 14.3826 59.6887 13.9658C61.3176 13.5177 62.946 13.0682 64.5754 12.6216C64.7075 12.586 64.7933 12.5465 64.7631 12.3764C64.4667 10.7021 63.7134 9.27214 62.3951 8.19222ZM61.4073 11.0478C59.187 11.6509 56.9657 12.2506 54.7474 12.86C54.5573 12.9117 54.5782 12.8298 54.5894 12.7079C54.7279 11.2067 55.4958 10.1414 56.8434 9.49349C57.3563 9.24679 57.9028 9.10199 58.483 9.12003C59.7999 9.14635 60.7896 9.74799 61.5019 10.843C61.595 10.9873 61.5146 11.0185 61.4073 11.0478Z" fill="#9B9B9B"/>
<path d="M76.3062 17.9783C76.3096 18.3976 76.3116 18.8168 76.3057 19.2357C76.3043 19.3731 76.3301 19.4477 76.4925 19.4463C77.1585 19.4394 77.824 19.437 78.49 19.4477C78.704 19.4511 78.6772 19.3219 78.6767 19.1903C78.6767 17.7769 78.6767 16.363 78.6767 14.9496C78.6767 14.2593 78.6762 13.5684 78.6777 12.8785C78.6777 12.7991 78.6518 12.7123 78.7176 12.643C78.7093 12.4061 78.6738 12.1726 78.6323 11.9385C78.3578 10.3794 77.6168 9.08541 76.3696 8.11763C74.5945 6.7408 72.5872 6.40341 70.4527 7.03089C68.0277 7.74368 66.2145 9.86939 65.9127 12.4602C65.6714 14.5333 66.2998 16.3581 67.8005 17.8252C69.3026 19.2942 71.1173 19.9431 73.2118 19.5813C74.4087 19.3741 75.4262 18.7954 76.1439 17.7711C76.1697 17.7345 76.1834 17.6419 76.2614 17.7228C76.3404 17.7959 76.3053 17.8925 76.3062 17.9783ZM76.0629 13.2003C76.1102 15.0637 74.5769 16.874 72.4102 16.8764C70.3733 16.8779 68.6444 15.1866 68.6347 13.1891C68.6244 11.1253 70.3109 9.43742 72.3781 9.43449C74.4804 9.43108 76.1371 11.2526 76.0629 13.2003Z" fill="#9B9B9B"/>
<path d="M22.3524 6.70813C18.7474 6.72373 15.8787 9.59294 15.8821 13.194C15.8387 16.6594 18.6489 19.6813 22.347 19.6857C25.9617 19.69 28.8577 16.8384 28.8465 13.2257C28.8353 9.52078 25.8242 6.6935 22.3524 6.70813ZM22.3602 16.8969C20.35 16.8988 18.6548 15.2231 18.6528 13.233C18.6514 11.1804 20.3237 9.48861 22.3548 9.48763C24.3859 9.48617 26.0675 11.1692 26.0621 13.1988C26.0572 15.2617 24.4225 16.8949 22.3602 16.8969Z" fill="#9B9B9B"/>
<path d="M36.9037 6.84658C36.9042 6.73737 36.8686 6.70568 36.7623 6.71055C36.5249 6.72079 36.2879 6.73054 36.051 6.76174C34.9979 6.90313 34.1144 7.33802 33.483 8.21951C33.4206 8.30678 33.3543 8.39161 33.2559 8.52179C33.2559 8.06788 33.2476 7.68174 33.2598 7.29707C33.2646 7.14057 33.2144 7.10693 33.0662 7.1079C32.2773 7.1157 31.4885 7.11814 30.7001 7.10644C30.5139 7.104 30.471 7.15471 30.4715 7.33754C30.4768 11.3057 30.4763 15.2738 30.472 19.242C30.472 19.4141 30.5114 19.4911 30.6909 19.4404C30.7679 19.3687 30.863 19.4004 30.9498 19.3999C31.6143 19.3975 32.2793 19.3897 32.9438 19.4034C33.1783 19.4087 33.2554 19.338 33.2544 19.0981C33.2466 17.1699 33.25 15.2412 33.2534 13.3129C33.2534 13.2213 33.2081 13.1145 33.3061 13.0384C33.3378 12.8044 33.3612 12.5679 33.4031 12.3359C33.5576 11.4719 33.9097 10.7162 34.6181 10.1599C35.2377 9.67386 35.9559 9.45788 36.7277 9.38962C36.8315 9.38036 36.9086 9.3906 36.9066 9.23702C36.8969 8.44086 36.9003 7.64372 36.9037 6.84658Z" fill="#9B9B9B"/>
<path d="M2.76466 19.4229C1.91925 19.4195 1.07336 19.416 0.227952 19.4253C0.0499973 19.4273 0.0314705 19.3517 0.0324456 19.2059C0.0378086 18.5248 0.0348834 17.8432 0.0348834 17.1621C0.0348834 13.074 0.0348833 8.98595 0.0339083 4.89835C0.0339083 4.80085 0.0529226 4.70139 0.0153815 4.60534C0.0109935 4.67847 0.00319279 4.75209 0.00319279 4.82522C0.00270524 9.62122 0.00270524 14.4167 0.00270524 19.2122C0.00270524 19.2449 0.00563052 19.2786 0.00221769 19.3107C-0.00997098 19.4146 0.0270826 19.4531 0.138243 19.4526C1.05776 19.4487 1.97776 19.4487 2.89727 19.4526C3.02306 19.4531 3.02989 19.3926 3.01038 19.2995C2.95675 19.3975 2.87387 19.4234 2.76466 19.4229Z" fill="#9B9B9B"/>
<path d="M0.379548 19.398C0.0597171 19.398 0.0592296 19.3965 0.0592296 19.0801C0.058742 14.3412 0.0582545 9.60221 0.0553292 4.86325C0.0553292 4.77696 0.0909201 4.6814 0.0153503 4.60534C0.0524039 4.7009 0.0338771 4.80036 0.0338771 4.89835C0.0348522 8.98644 0.0348522 13.0745 0.0348522 17.1621C0.0348522 17.8432 0.0377775 18.5248 0.0324145 19.2059C0.0314394 19.3517 0.0499662 19.4273 0.227921 19.4253C1.07333 19.416 1.91873 19.4195 2.76463 19.4229C2.87384 19.4234 2.95721 19.397 3.01035 19.2995C2.89432 19.3853 2.76414 19.4009 2.62178 19.4C1.87437 19.3951 1.12696 19.3985 0.379548 19.398Z" fill="#9B9B9B"/>
<path d="M78.7338 15.5498C78.7318 14.5806 78.7235 13.6113 78.7177 12.6426C78.6855 12.7308 78.7011 12.822 78.7011 12.9117C78.7001 14.9906 78.7011 17.07 78.6996 19.1489C78.6996 19.5189 78.7445 19.4682 78.3666 19.4697C77.7504 19.4721 77.1341 19.4638 76.5179 19.4746C76.3389 19.4775 76.2736 19.4385 76.2804 19.2459C76.2955 18.8193 76.2863 18.3912 76.2838 17.9641C76.2834 17.8832 76.3043 17.7993 76.2609 17.7223C76.2575 18.2396 76.2614 18.7569 76.2458 19.2737C76.2405 19.4526 76.2804 19.5106 76.4716 19.5072C77.1531 19.4941 77.8352 19.4926 78.5163 19.5072C78.7152 19.5116 78.7386 19.4409 78.7377 19.2708C78.7308 18.03 78.7362 16.7901 78.7338 15.5498Z" fill="#9B9B9B"/>
<path d="M33.2773 13.3022C33.2754 15.2402 33.2759 17.1772 33.2759 19.1147C33.2759 19.4204 33.2754 19.4209 32.9785 19.4209C32.2974 19.4219 31.6158 19.4209 30.9342 19.4224C30.8532 19.4224 30.7699 19.4053 30.6909 19.4414C31.5124 19.4448 32.3339 19.4429 33.1554 19.4546C33.3329 19.457 33.3046 19.3556 33.3046 19.2513C33.3046 17.1806 33.3051 15.11 33.3056 13.0394C33.2486 13.1213 33.2773 13.2149 33.2773 13.3022Z" fill="#9B9B9B"/>
<path d="M33.2534 13.3134C33.25 15.2417 33.2466 17.1704 33.2544 19.0986C33.2554 19.3385 33.1788 19.4092 32.9438 19.4039C32.2793 19.3907 31.6143 19.398 30.9498 19.4004C30.863 19.4009 30.7679 19.3692 30.6909 19.4409C30.7699 19.4048 30.8532 19.4219 30.9342 19.4219C31.6158 19.4204 32.2969 19.4214 32.9785 19.4204C33.2749 19.4204 33.2759 19.4199 33.2759 19.1142C33.2759 17.1767 33.2759 15.2397 33.2773 13.3017C33.2773 13.2144 33.2481 13.1208 33.3061 13.0389C33.2081 13.115 33.2534 13.2222 33.2534 13.3134Z" fill="#9B9B9B"/>
<path d="M47.5302 7.48723C47.5312 6.15817 47.5312 4.82961 47.5302 3.50007C47.5302 3.40938 47.5395 3.32065 47.5546 3.23143C47.4512 3.29432 47.5088 3.39427 47.5088 3.47277C47.5044 4.99733 47.5054 6.52189 47.5058 8.04596V8.04644C47.5565 7.86166 47.5302 7.67396 47.5302 7.48723Z" fill="#9B9B9B"/>
<path d="M47.5546 7.89286C47.5561 7.07378 47.558 6.25519 47.558 5.43611C47.558 4.70138 47.5561 3.96616 47.5546 3.23191C47.5395 3.32113 47.5302 3.40987 47.5302 3.50055C47.5312 4.83009 47.5312 6.15866 47.5302 7.48771C47.5302 7.67444 47.5561 7.86263 47.5054 8.04693C47.5678 8.00987 47.5541 7.94844 47.5546 7.89286Z" fill="#9B9B9B"/>
</svg>
