<svg width="48" height="40" viewBox="0 0 48 40" fill="none" xmlns="http://www.w3.org/2000/svg">
<path d="M46.902 15.814V9.504C46.902 4.807 43.093 1 38.398 1H27.824" stroke="#9B9B9C" stroke-width="2" stroke-miterlimit="10" stroke-linecap="round" stroke-linejoin="round"/>
<path d="M27.824 38.3731H38.398C43.093 38.3731 46.902 34.5661 46.902 29.8691V23.5591" stroke="#9B9B9C" stroke-width="2" stroke-miterlimit="10" stroke-linecap="round" stroke-linejoin="round"/>
<path d="M1 23.5601V29.8701C1 34.5671 4.809 38.3741 9.504 38.3741H20.078" stroke="#9B9B9C" stroke-width="2" stroke-miterlimit="10" stroke-linecap="round" stroke-linejoin="round"/>
<path d="M20.078 1H9.504C4.809 1 1 4.807 1 9.504V15.814" stroke="#9B9B9C" stroke-width="2" stroke-miterlimit="10" stroke-linecap="round" stroke-linejoin="round"/>
<path d="M20.513 9.33203H13.287V16.559H20.513V9.33203Z" stroke="#9B9B9C" stroke-miterlimit="10"/>
<path d="M34.659 9.46204H27.433V16.688H34.659V9.46204Z" stroke="#9B9B9C" stroke-miterlimit="10"/>
<path d="M34.659 23.282H27.433V30.508H34.659V23.282Z" stroke="#9B9B9C" stroke-miterlimit="10"/>
<path d="M25.489 9.33203H21.877V12.945H25.489V9.33203Z" fill="#9B9B9C"/>
<path d="M25.347 25.089H23.951V30.81H25.347V25.089Z" fill="#9B9B9C"/>
<path d="M23.881 14.676H21.877V23.56H23.881V14.676Z" fill="#9B9B9C"/>
<path d="M33.937 19.095H30.997V20.566H33.937V19.095Z" fill="#9B9B9C"/>
<path d="M22.799 24.418H21.328V28.684H22.799V24.418Z" fill="#9B9B9C"/>
<path d="M21.232 24.418H18.292V25.889H21.232V24.418Z" fill="#9B9B9C"/>
<path d="M29.338 20.566H21.033V22.037H29.338V20.566Z" fill="#9B9B9C"/>
<path d="M16.847 19.717H13.906V25.602H16.847V19.717Z" fill="#9B9B9C"/>
<path d="M19.788 27.567H13.906V30.508H19.788V27.567Z" stroke="#9B9B9C" stroke-miterlimit="10"/>
</svg>
