<svg width="53" height="60" viewBox="0 0 53 60" fill="none" xmlns="http://www.w3.org/2000/svg">
<path d="M8.62201 25.482L46.684 9.88199C46.684 9.88199 51.684 8.46999 48.434 14.551C45.184 20.632 31.934 54.882 31.934 54.882C31.934 54.882 30.434 56.632 28.934 53.632C27.434 50.632 23.184 37.882 23.184 37.882C23.184 37.882 12.684 33.468 9.43401 32.218C6.18401 30.968 3.93401 30.218 3.93401 30.218C3.93401 30.218 2.26701 28.636 4.76701 27.552C7.26701 26.468 8.62201 25.482 8.62201 25.482Z" stroke="#9B9B9C" stroke-width="2" stroke-miterlimit="10" stroke-linecap="round" stroke-linejoin="round"/>
<path d="M18.541 42.485L5.87601 54.985" stroke="#9B9B9C" stroke-width="2" stroke-miterlimit="10" stroke-linecap="round" stroke-linejoin="round"/>
<path d="M19.538 49.148L12.208 56.383" stroke="#9B9B9C" stroke-width="2" stroke-miterlimit="10" stroke-linecap="round" stroke-linejoin="round"/>
<path d="M11.65 40.678L4.32001 47.912" stroke="#9B9B9C" stroke-width="2" stroke-miterlimit="10" stroke-linecap="round" stroke-linejoin="round"/>
</svg>
