<svg width="53" height="60" viewBox="0 0 53 60" fill="none" xmlns="http://www.w3.org/2000/svg">
<path d="M39.2749 25.045C42.8946 25.045 45.8289 22.1107 45.8289 18.491C45.8289 14.8713 42.8946 11.937 39.2749 11.937C35.6553 11.937 32.7209 14.8713 32.7209 18.491C32.7209 22.1107 35.6553 25.045 39.2749 25.045Z" stroke="#9B9B9C" stroke-width="2" stroke-miterlimit="10" stroke-linecap="round" stroke-linejoin="round"/>
<path d="M50.7739 38.504C50.7739 44.855 27.7739 44.855 27.7739 38.504C27.7739 32.152 32.9219 27.003 39.2739 27.003C45.6259 27.003 50.7739 32.152 50.7739 38.504Z" stroke="#9B9B9C" stroke-width="2" stroke-miterlimit="10" stroke-linecap="round" stroke-linejoin="round"/>
<path d="M13.514 24.627C17.1336 24.627 20.068 21.6927 20.068 18.073C20.068 14.4533 17.1336 11.519 13.514 11.519C9.89429 11.519 6.95996 14.4533 6.95996 18.073C6.95996 21.6927 9.89429 24.627 13.514 24.627Z" stroke="#9B9B9C" stroke-width="2" stroke-miterlimit="10" stroke-linecap="round" stroke-linejoin="round"/>
<path d="M25.0129 38.086C25.0129 44.437 2.01294 44.437 2.01294 38.086C2.01294 31.734 7.16094 26.585 13.5129 26.585C19.8649 26.585 25.0129 31.734 25.0129 38.086Z" stroke="#9B9B9C" stroke-width="2" stroke-miterlimit="10" stroke-linecap="round" stroke-linejoin="round"/>
<path d="M26.46 26.974C31.7653 26.974 36.066 22.6733 36.066 17.368C36.066 12.0628 31.7653 7.76202 26.46 7.76202C21.1548 7.76202 16.854 12.0628 16.854 17.368C16.854 22.6733 21.1548 26.974 26.46 26.974Z" fill="white" stroke="#9B9B9C" stroke-width="2" stroke-miterlimit="10" stroke-linecap="round" stroke-linejoin="round"/>
<path d="M43.315 46.7C43.315 56.009 9.60303 56.009 9.60303 46.7C9.60303 37.39 17.15 29.844 26.458 29.844C35.769 29.844 43.315 37.391 43.315 46.7Z" fill="white" stroke="#9B9B9C" stroke-width="2" stroke-miterlimit="10" stroke-linecap="round" stroke-linejoin="round"/>
</svg>
