<svg width="53" height="60" viewBox="0 0 53 60" fill="none" xmlns="http://www.w3.org/2000/svg">
<g clip-path="url(#clip0_94_57)">
<path d="M29.116 6.01998C26.611 3.51598 23.331 2.26398 20.053 2.26398V3.81098C22.935 3.81098 25.822 4.91298 28.023 7.11298C30.222 9.31298 31.322 12.197 31.324 15.082H32.87C32.87 11.804 31.619 8.52298 29.115 6.01898L29.116 6.01998Z" fill="#9B9B9C"/>
<path d="M20.052 5.35997V6.90597C22.146 6.90597 24.237 7.70397 25.833 9.29897C27.428 10.895 28.226 12.987 28.226 15.081H29.773C29.774 12.595 28.824 10.105 26.925 8.20597C25.027 6.30597 22.536 5.35797 20.05 5.35797L20.052 5.35997Z" fill="#9B9B9C"/>
<path d="M20.05 8.45398V10.001C21.353 10.002 22.652 10.5 23.642 11.491C24.634 12.48 25.13 13.782 25.13 15.081H26.677C26.678 13.385 26.031 11.691 24.736 10.396C23.441 9.10098 21.747 8.45298 20.05 8.45398Z" fill="#9B9B9C"/>
<path d="M14.242 37.411V16.706C14.242 15.188 15.984 13.959 18.135 13.959C20.285 13.959 22.028 15.188 22.028 16.706V37.411" stroke="#9B9B9C" stroke-width="2" stroke-miterlimit="10" stroke-linecap="round" stroke-linejoin="round"/>
<path d="M22.787 37.411V27.374C22.787 25.856 24.529 24.628 26.68 24.628C28.829 24.628 30.572 25.857 30.572 27.374V37.411" stroke="#9B9B9C" stroke-width="2" stroke-miterlimit="10" stroke-linecap="round" stroke-linejoin="round"/>
<path d="M30.537 39.188V29.745C30.537 28.227 32.28 26.998 34.429 26.998C36.58 26.998 38.323 28.227 38.323 29.745V39.188" stroke="#9B9B9C" stroke-width="2" stroke-miterlimit="10" stroke-linecap="round" stroke-linejoin="round"/>
<path d="M38.657 40.967V30.93C38.657 29.413 40.399 28.184 42.549 28.184C44.7 28.184 46.442 29.413 46.442 30.93V40.967" stroke="#9B9B9C" stroke-width="2" stroke-miterlimit="10" stroke-linecap="round" stroke-linejoin="round"/>
<path d="M14.242 35.217L7.10299 29.488C7.10299 29.488 -1.99801 27.808 4.16199 35.217C10.324 42.625 10.324 42.625 10.324 42.625C10.324 42.625 11.444 45.688 11.583 47.762C11.723 49.836 13.572 55.467 22.027 57.245C30.482 59.022 35.437 59.022 42.548 53.096C47.561 48.749 46.548 40.492 46.548 40.492" stroke="#9B9B9C" stroke-width="2" stroke-miterlimit="10" stroke-linecap="round" stroke-linejoin="round"/>
</g>
<defs>
<clipPath id="clip0_94_57">
<rect width="52.92" height="59.688" fill="white"/>
</clipPath>
</defs>
</svg>
