<svg width="74" height="83" viewBox="0 0 74 83" fill="none" xmlns="http://www.w3.org/2000/svg">
<path d="M64.276 48.158C64.276 52.5118 60.727 56.0411 56.3474 56.0411H30.9522C26.574 56.0411 23.025 52.5118 23.025 48.158V26.5959C23.025 22.242 26.574 18.7128 30.9522 18.7128H56.3474C60.727 18.7128 64.276 22.242 64.276 26.5959V48.158Z" fill="white" stroke="#9B9B9C" stroke-width="2" stroke-miterlimit="10" stroke-linecap="round" stroke-linejoin="round"/>
<path d="M57.7975 55.5029C57.7975 59.8568 54.2485 63.386 49.8689 63.386H24.4737C20.0955 63.386 16.5465 59.8568 16.5465 55.5029V33.9408C16.5465 29.587 20.0955 26.0577 24.4737 26.0577H49.8689C54.2485 26.0577 57.7975 29.587 57.7975 33.9408V55.5029Z" fill="white" stroke="#9B9B9C" stroke-width="2" stroke-miterlimit="10" stroke-linecap="round" stroke-linejoin="round"/>
<path d="M32.303 37.6328L43.6505 46.2154L32.303 53.6841" stroke="#9B9B9C" stroke-width="2" stroke-miterlimit="10" stroke-linecap="round" stroke-linejoin="round"/>
<path d="M29.9132 38.3823C31.732 38.3823 33.2063 36.9162 33.2063 35.1075C33.2063 33.2989 31.732 31.8328 29.9132 31.8328C28.0945 31.8328 26.6201 33.2989 26.6201 35.1075C26.6201 36.9162 28.0945 38.3823 29.9132 38.3823Z" stroke="#9B9B9C" stroke-width="2" stroke-miterlimit="10" stroke-linecap="round" stroke-linejoin="round"/>
<path d="M29.0099 58.0505C30.8286 58.0505 32.303 56.5844 32.303 54.7758C32.303 52.9671 30.8286 51.501 29.0099 51.501C27.1912 51.501 25.7168 52.9671 25.7168 54.7758C25.7168 56.5844 27.1912 58.0505 29.0099 58.0505Z" stroke="#9B9B9C" stroke-width="2" stroke-miterlimit="10" stroke-linecap="round" stroke-linejoin="round"/>
<path d="M46.9436 49.3191C48.7623 49.3191 50.2366 47.8529 50.2366 46.0443C50.2366 44.2357 48.7623 42.7695 46.9436 42.7695C45.1248 42.7695 43.6505 44.2357 43.6505 46.0443C43.6505 47.8529 45.1248 49.3191 46.9436 49.3191Z" stroke="#9B9B9C" stroke-width="2" stroke-miterlimit="10" stroke-linecap="round" stroke-linejoin="round"/>
</svg>
