<svg width="74" height="84" viewBox="0 0 74 84" fill="none" xmlns="http://www.w3.org/2000/svg">
<path d="M28.575 39.8356L37.1314 31.8716L45.425 39.8356" stroke="#9B9B9C" stroke-width="2" stroke-miterlimit="10" stroke-linecap="round" stroke-linejoin="round"/>
<path d="M37 69.3582V33.2549" stroke="#9B9B9C" stroke-width="2" stroke-miterlimit="10" stroke-linecap="round" stroke-linejoin="round"/>
<path d="M64.0061 45.0412C64.1166 44.042 64.1837 43.0273 64.1837 41.9986C64.1837 26.8896 52.014 14.6417 36.9986 14.6417C28.1094 14.6417 20.2409 18.9552 15.281 25.5949" stroke="#9B9B9C" stroke-width="2" stroke-miterlimit="10" stroke-linecap="round" stroke-linejoin="round"/>
<path d="M9.99251 38.9574C9.88205 39.958 9.81493 40.9699 9.81493 41.9986L9.99251 38.9574Z" fill="white"/>
<path d="M9.99251 38.9574C9.88205 39.958 9.81493 40.9699 9.81493 41.9986" stroke="#9B9B9C" stroke-width="2" stroke-miterlimit="10" stroke-linecap="round" stroke-linejoin="round"/>
<path d="M9.81633 41.9985C9.81633 57.1103 21.9861 69.3582 36.9986 69.3582C45.8892 69.3582 53.7577 65.0448 58.7176 58.405" stroke="#9B9B9C" stroke-width="2" stroke-miterlimit="10" stroke-linecap="round" stroke-linejoin="round"/>
<path d="M70.8845 43.0133L62.8147 46.7033L58.7176 38.9574" stroke="#9B9B9C" stroke-width="2" stroke-miterlimit="10" stroke-linecap="round" stroke-linejoin="round"/>
<path d="M3.59653 42.8965L10.4652 37.2588L16.3913 43.6959" stroke="#9B9B9C" stroke-width="2" stroke-miterlimit="10" stroke-linecap="round" stroke-linejoin="round"/>
</svg>
