<svg width="74" height="84" viewBox="0 0 74 84" fill="none" xmlns="http://www.w3.org/2000/svg">
<path d="M58.024 64.6311C58.024 69.0374 54.475 72.6092 50.0968 72.6092H23.9018C19.5236 72.6092 15.9746 69.0374 15.9746 64.6311V19.369C15.9746 14.9626 19.5236 11.3909 23.9018 11.3909H50.0968C54.475 11.3909 58.024 14.9626 58.024 19.369V64.6311Z" fill="white" stroke="#9B9B9C" stroke-width="2" stroke-miterlimit="10" stroke-linecap="round" stroke-linejoin="round"/>
<path d="M15.9746 19.3689H58.024" stroke="#9B9B9C" stroke-width="2" stroke-miterlimit="10" stroke-linecap="round" stroke-linejoin="round"/>
<path d="M15.9746 59.804H58.024" stroke="#9B9B9C" stroke-width="2" stroke-miterlimit="10" stroke-linecap="round" stroke-linejoin="round"/>
<path d="M33.2147 65.9089H43.2925" stroke="#9B9B9C" stroke-width="2" stroke-miterlimit="10" stroke-linecap="round" stroke-linejoin="round"/>
<path d="M35.0521 27.7157C34.5333 28.2392 34.2453 28.9344 34.2453 29.6747C34.2467 31.2016 35.4814 32.4443 36.9986 32.4443C37.7313 32.4443 38.4263 32.1558 38.9451 31.6323C39.4667 31.1088 39.7519 30.4121 39.7519 29.6733C39.7519 28.1463 38.5158 26.9037 37 26.9037C36.2645 26.9037 35.5723 27.1922 35.0521 27.7157ZM39.0234 29.6733C39.0234 30.2165 38.8136 30.7274 38.4291 31.113C38.0474 31.4972 37.5384 31.7111 37 31.7111C35.8841 31.7111 34.9752 30.7977 34.9752 29.6747C34.9752 29.1301 35.185 28.6192 35.5695 28.235C35.9512 27.8494 36.4602 27.6369 37 27.6369C38.1145 27.6369 39.022 28.5502 39.0234 29.6733Z" fill="#9B9B9C"/>
<path d="M32.7155 37.529L41.2803 37.5276C41.5166 37.5276 41.7096 37.339 41.718 37.1026C41.7208 36.9829 41.7921 34.1796 40.04 32.564C39.8848 32.4176 39.6471 32.4092 39.4793 32.5386C39.4597 32.5541 36.4463 34.0191 34.6438 32.5415C34.4802 32.4063 34.2425 32.4106 34.0817 32.5513C34.0104 32.6132 32.324 34.1219 32.2806 37.0829C32.2792 37.1997 32.3254 37.3151 32.4065 37.3981C32.4876 37.4825 32.5994 37.529 32.7155 37.529ZM34.4159 33.4647C35.9918 34.5187 38.7577 34.0191 39.689 33.4548C40.5769 34.4681 40.7839 35.9331 40.8314 36.6494L33.1727 36.6508C33.307 34.9747 34.0313 33.9178 34.4159 33.4647Z" fill="#9B9B9C"/>
<path d="M31.2011 43.6958C32.2352 43.6958 33.0735 42.8521 33.0735 41.8114C33.0735 40.7707 32.2352 39.927 31.2011 39.927C30.167 39.927 29.3287 40.7707 29.3287 41.8114C29.3287 42.8521 30.167 43.6958 31.2011 43.6958Z" stroke="#9B9B9C" stroke-width="0.5" stroke-miterlimit="10"/>
<path d="M37.0378 43.8859C38.0718 43.8859 38.9101 43.0422 38.9101 42.0015C38.9101 40.9607 38.0718 40.1171 37.0378 40.1171C36.0037 40.1171 35.1654 40.9607 35.1654 42.0015C35.1654 43.0422 36.0037 43.8859 37.0378 43.8859Z" stroke="#9B9B9C" stroke-width="0.5" stroke-miterlimit="10"/>
<path d="M42.7947 43.8859C43.8288 43.8859 44.6671 43.0422 44.6671 42.0015C44.6671 40.9607 43.8288 40.1171 42.7947 40.1171C41.7606 40.1171 40.9223 40.9607 40.9223 42.0015C40.9223 43.0422 41.7606 43.8859 42.7947 43.8859Z" stroke="#9B9B9C" stroke-width="0.5" stroke-miterlimit="10"/>
</svg>
